name Walk5.mot
datacolumns 19
datarows 20
range 1.62000000 1.71500000
endheader

                time	   L_ground_force_vx	   L_ground_force_vy	   L_ground_force_vz	   L_ground_force_px	   L_ground_force_py	   L_ground_force_pz	   R_ground_force_vx	   R_ground_force_vy	   R_ground_force_vz	   R_ground_force_px	   R_ground_force_py	   R_ground_force_pz	   L_ground_torque_x	   L_ground_torque_y	   L_ground_torque_z	   R_ground_torque_x	   R_ground_torque_y	   R_ground_torque_z	
          1.62000000	         27.66936714	        529.53920749	         36.75864582	         -0.30485524	          0.00000000	         -0.09183192	          0.00000000	          0.00000000	          0.00000000	          0.00000000	          0.00000000	          0.00000000	          0.00000000	          0.01651223	          0.00000000	          0.00000000	          0.00000000	          0.00000000	
          1.62500000	         28.28832878	        537.80745954	         37.40091785	         -0.30206958	          0.00000000	         -0.09256169	          0.00000000	          0.00000000	          0.00000000	         -0.00000000	          0.00000000	         -0.00000000	          0.00000000	         -0.01912301	          0.00000000	          0.00000000	         -0.00000000	          0.00000000	
          1.63000000	         28.85970097	        547.06601866	         37.89192540	         -0.29945089	          0.00000000	         -0.09299361	         -0.00000000	         -0.00000000	          0.00000000	         -0.00000000	          0.00000000	         -0.00000000	          0.00000000	         -0.08085584	          0.00000000	          0.00000000	         -0.00000000	          0.00000000	
          1.63500000	         29.49518347	        557.12594390	         38.33781693	         -0.29701225	          0.00000000	         -0.09348947	         -0.00000000	         -0.00000000	         -0.00000000	         -0.00000000	          0.00000000	         -0.00000000	          0.00000000	         -0.14077618	          0.00000000	          0.00000000	         -0.00000000	          0.00000000	
          1.64000000	         30.36783761	        567.82297609	         38.85468575	         -0.29465473	          0.00000000	         -0.09409935	         -0.00000000	         -0.00000000	         -0.00000000	          0.00000000	          0.00000000	          0.00000000	          0.00000000	         -0.17145639	          0.00000000	          0.00000000	          0.00000000	          0.00000000	
          1.64500000	         31.50876648	        578.99272356	         39.42999863	         -0.29230118	          0.00000000	         -0.09460838	          0.00000000	          0.00000000	         -0.00000000	          0.00000000	          0.00000000	          0.00000000	          0.00000000	         -0.21035572	          0.00000000	          0.00000000	          0.00000000	          0.00000000	
          1.65000000	         32.93424998	        590.62221415	         40.02301828	         -0.29005608	          0.00000000	         -0.09500076	          0.00000000	          0.00000000	          0.00000000	          0.00000000	          0.00000000	          0.00000000	          0.00000000	         -0.23745891	          0.00000000	          0.00000000	          0.00000000	          0.00000000	
          1.65500000	         34.56226211	        602.41057287	         40.65745415	         -0.28800965	          0.00000000	         -0.09538699	          0.00000000	          0.00000000	          0.00000000	         -0.00000000	          0.00000000	         -0.00000000	          0.00000000	         -0.26210445	          0.00000000	          0.00000000	         -0.00000000	          0.00000000	
          1.66000000	         36.25260872	        614.16645132	         41.41316059	         -0.28614090	          0.00000000	         -0.09571124	         -0.00000000	         -0.00000002	         -0.00000000	         -0.00000000	          0.00000000	         -0.00000000	          0.00000000	         -0.33204533	          0.00000000	          0.00000000	         -0.00000000	          0.00000000	
          1.66500000	         38.00406033	        626.08128151	         42.29184461	         -0.28436243	          0.00000000	         -0.09591156	         -0.00000000	         -0.00000007	         -0.00000000	         -0.00000000	          0.00000000	         -0.00000000	          0.00000000	         -0.39532777	          0.00000000	          0.00000000	         -0.00000000	          0.00000000	
          1.67000000	         39.94141012	        638.23289949	         43.28412378	         -0.28269954	          0.00000000	         -0.09610448	          0.00000000	          0.00000003	         -0.00000001	          0.00000000	          0.00000000	          0.00000000	          0.00000000	         -0.41788631	          0.00000000	          0.00000000	          0.00000000	          0.00000000	
          1.67500000	         42.15221737	        650.23565480	         44.47141944	         -0.28125237	          0.00000000	         -0.09644191	          0.00000003	          0.00000070	          0.00000001	          0.00000000	          0.00000000	          0.00000000	          0.00000000	         -0.45396372	          0.00000000	          0.00000000	          0.00000000	          0.00000000	
          1.68000000	         44.72581654	        661.61141520	         45.81274560	         -0.27985566	          0.00000000	         -0.09682806	          0.00000007	          0.00000155	          0.00000007	         -0.00000000	          0.00000000	         -0.00000000	          0.00000000	         -0.46573976	          0.00000000	          0.00000000	         -0.00000000	          0.00000000	
          1.68500000	         47.64927113	        672.35555806	         47.01390917	         -0.27854851	          0.00000000	         -0.09700459	         -0.00000009	         -0.00000239	          0.00000010	         -0.00000001	          0.00000000	         -0.00000000	          0.00000000	         -0.45107548	          0.00000000	          0.00000000	         -0.00000000	          0.00000000	
          1.69000000	         50.90519278	        683.04569332	         47.94410198	         -0.27747395	          0.00000000	         -0.09707347	         -0.00000086	         -0.00002049	         -0.00000036	         -0.00000002	          0.00000000	         -0.00000001	          0.00000000	         -0.43533050	          0.00000000	          0.00000000	         -0.00000001	          0.00000000	
          1.69500000	         54.57414879	        693.00666774	         48.64504572	         -0.27661289	          0.00000000	         -0.09719317	         -0.00000139	         -0.00003114	         -0.00000185	          0.00000002	          0.00000000	          0.00000001	          0.00000000	         -0.45193362	          0.00000000	          0.00000000	          0.00000002	          0.00000000	
          1.70000000	         58.63629557	        701.56141067	         49.16626951	         -0.27584535	          0.00000000	         -0.09731494	          0.00000429	          0.00010804	         -0.00000153	          0.00000026	          0.00000000	          0.00000011	          0.00000000	         -0.49374083	          0.00000000	          0.00000000	          0.00000013	          0.00000000	
          1.70500000	         62.90830918	        709.06504451	         49.52891730	         -0.27528733	          0.00000000	         -0.09743354	          0.00002396	          0.00056737	          0.00001313	          0.00000044	          0.00000000	          0.00000019	          0.00000000	         -0.54723318	          0.00000000	          0.00000000	          0.00000018	          0.00000000	
          1.71000000	         67.21025387	        715.56544625	         49.77502016	         -0.27481012	          0.00000000	         -0.09761340	          0.00002268	          0.00047662	          0.00004814	         -0.00000121	          0.00000000	         -0.00000051	          0.00000000	         -0.55265852	          0.00000000	          0.00000000	         -0.00000075	          0.00000000	
          1.71500000	         71.44283862	        720.55724547	         49.92853580	         -0.27429394	          0.00000000	         -0.09755281	         -0.00016197	         -0.00399173	          0.00000390	         -0.00000722	          0.00000000	         -0.00000308	          0.00000000	         -0.55946628	          0.00000000	          0.00000000	         -0.00000364	          0.00000000	
